<mxfile host="Electron" modified="2024-09-18T09:46:50.521Z" agent="Mozilla/5.0 (Windows NT 10.0; Win64; x64) AppleWebKit/537.36 (KHTML, like Gecko) draw.io/22.1.2 Chrome/114.0.5735.289 Electron/25.9.4 Safari/537.36" etag="vd-6m46-e70nZU4fRU7S" version="22.1.2" type="device">
  <diagram name="Page-1" id="xYSvpXFn09rOtXfaB0Su">
    <mxGraphModel dx="2394" dy="945" grid="0" gridSize="10" guides="1" tooltips="1" connect="1" arrows="1" fold="1" page="0" pageScale="1" pageWidth="850" pageHeight="1100" math="0" shadow="0">
      <root>
        <mxCell id="0" />
        <mxCell id="1" parent="0" />
        <mxCell id="wJvns1OEq2L9lGym005K-1" value="&lt;font style=&quot;font-size: 20px;&quot;&gt;MLOPS PLATFORM&lt;br&gt;(Development branch local deployment and Staging&amp;amp;Prod in Pouta)&lt;br&gt;&lt;/font&gt;" style="shape=cube;whiteSpace=wrap;html=1;boundedLbl=1;backgroundOutline=1;darkOpacity=0.05;darkOpacity2=0.1;" vertex="1" parent="1">
          <mxGeometry x="280" y="350" width="280" height="150" as="geometry" />
        </mxCell>
        <mxCell id="wJvns1OEq2L9lGym005K-4" value="INPUT &lt;br&gt;THROUGH&lt;br&gt;CI/CD" style="html=1;shadow=0;dashed=0;align=center;verticalAlign=middle;shape=mxgraph.arrows2.arrow;dy=0;dx=30;notch=30;rotation=0;" vertex="1" parent="1">
          <mxGeometry x="140" y="395" width="130" height="60" as="geometry" />
        </mxCell>
        <mxCell id="wJvns1OEq2L9lGym005K-5" value="OUTPUT:&lt;br&gt;PERFORMANCE&lt;br&gt;INFORMATION" style="html=1;shadow=0;dashed=0;align=center;verticalAlign=middle;shape=mxgraph.arrows2.arrow;dy=0;dx=30;notch=30;rotation=0;" vertex="1" parent="1">
          <mxGeometry x="570" y="395" width="182" height="60" as="geometry" />
        </mxCell>
        <mxCell id="wJvns1OEq2L9lGym005K-7" value="TOOLING" style="rounded=0;whiteSpace=wrap;html=1;" vertex="1" parent="1">
          <mxGeometry x="-209" y="395" width="120" height="60" as="geometry" />
        </mxCell>
        <mxCell id="wJvns1OEq2L9lGym005K-8" value="CONFIGURATOR" style="shape=umlActor;verticalLabelPosition=bottom;verticalAlign=top;html=1;outlineConnect=0;" vertex="1" parent="1">
          <mxGeometry x="-166.5" y="127" width="35" height="70" as="geometry" />
        </mxCell>
        <mxCell id="wJvns1OEq2L9lGym005K-9" value="Configuration input" style="swimlane;fontStyle=0;childLayout=stackLayout;horizontal=1;startSize=30;horizontalStack=0;resizeParent=1;resizeParentMax=0;resizeLast=0;collapsible=1;marginBottom=0;whiteSpace=wrap;html=1;" vertex="1" parent="1">
          <mxGeometry x="-409" y="139" width="140" height="90" as="geometry" />
        </mxCell>
        <mxCell id="wJvns1OEq2L9lGym005K-10" value="Overrides for tooling defaults" style="text;strokeColor=none;fillColor=none;align=left;verticalAlign=middle;spacingLeft=4;spacingRight=4;overflow=hidden;points=[[0,0.5],[1,0.5]];portConstraint=eastwest;rotatable=0;whiteSpace=wrap;html=1;" vertex="1" parent="wJvns1OEq2L9lGym005K-9">
          <mxGeometry y="30" width="140" height="30" as="geometry" />
        </mxCell>
        <mxCell id="wJvns1OEq2L9lGym005K-11" value="Secrets" style="text;strokeColor=none;fillColor=none;align=left;verticalAlign=middle;spacingLeft=4;spacingRight=4;overflow=hidden;points=[[0,0.5],[1,0.5]];portConstraint=eastwest;rotatable=0;whiteSpace=wrap;html=1;" vertex="1" parent="wJvns1OEq2L9lGym005K-9">
          <mxGeometry y="60" width="140" height="30" as="geometry" />
        </mxCell>
        <mxCell id="wJvns1OEq2L9lGym005K-14" value="" style="endArrow=none;html=1;rounded=0;" edge="1" parent="1" source="wJvns1OEq2L9lGym005K-30" target="wJvns1OEq2L9lGym005K-9">
          <mxGeometry width="50" height="50" relative="1" as="geometry">
            <mxPoint x="-129" y="287" as="sourcePoint" />
            <mxPoint x="51" y="297" as="targetPoint" />
          </mxGeometry>
        </mxCell>
        <mxCell id="wJvns1OEq2L9lGym005K-15" value="Tooling defaults" style="swimlane;fontStyle=0;childLayout=stackLayout;horizontal=1;startSize=30;horizontalStack=0;resizeParent=1;resizeParentMax=0;resizeLast=0;collapsible=1;marginBottom=0;whiteSpace=wrap;html=1;" vertex="1" parent="1">
          <mxGeometry x="-409" y="327" width="140" height="150" as="geometry" />
        </mxCell>
        <mxCell id="wJvns1OEq2L9lGym005K-16" value="Default platform service end points" style="text;strokeColor=none;fillColor=none;align=left;verticalAlign=middle;spacingLeft=4;spacingRight=4;overflow=hidden;points=[[0,0.5],[1,0.5]];portConstraint=eastwest;rotatable=0;whiteSpace=wrap;html=1;" vertex="1" parent="wJvns1OEq2L9lGym005K-15">
          <mxGeometry y="30" width="140" height="30" as="geometry" />
        </mxCell>
        <mxCell id="wJvns1OEq2L9lGym005K-17" value="Default branches" style="text;strokeColor=none;fillColor=none;align=left;verticalAlign=middle;spacingLeft=4;spacingRight=4;overflow=hidden;points=[[0,0.5],[1,0.5]];portConstraint=eastwest;rotatable=0;whiteSpace=wrap;html=1;" vertex="1" parent="wJvns1OEq2L9lGym005K-15">
          <mxGeometry y="60" width="140" height="30" as="geometry" />
        </mxCell>
        <mxCell id="wJvns1OEq2L9lGym005K-18" value="Default CI/CD config" style="text;strokeColor=none;fillColor=none;align=left;verticalAlign=middle;spacingLeft=4;spacingRight=4;overflow=hidden;points=[[0,0.5],[1,0.5]];portConstraint=eastwest;rotatable=0;whiteSpace=wrap;html=1;" vertex="1" parent="wJvns1OEq2L9lGym005K-15">
          <mxGeometry y="90" width="140" height="30" as="geometry" />
        </mxCell>
        <mxCell id="wJvns1OEq2L9lGym005K-58" value="Repo structure" style="text;strokeColor=none;fillColor=none;align=left;verticalAlign=middle;spacingLeft=4;spacingRight=4;overflow=hidden;points=[[0,0.5],[1,0.5]];portConstraint=eastwest;rotatable=0;whiteSpace=wrap;html=1;" vertex="1" parent="wJvns1OEq2L9lGym005K-15">
          <mxGeometry y="120" width="140" height="30" as="geometry" />
        </mxCell>
        <mxCell id="wJvns1OEq2L9lGym005K-19" value="" style="endArrow=none;html=1;rounded=0;exitX=0;exitY=0.5;exitDx=0;exitDy=0;" edge="1" parent="1" source="wJvns1OEq2L9lGym005K-7" target="wJvns1OEq2L9lGym005K-15">
          <mxGeometry width="50" height="50" relative="1" as="geometry">
            <mxPoint x="1" y="437" as="sourcePoint" />
            <mxPoint x="51" y="387" as="targetPoint" />
          </mxGeometry>
        </mxCell>
        <mxCell id="wJvns1OEq2L9lGym005K-20" value="MLOPS input" style="swimlane;fontStyle=0;childLayout=stackLayout;horizontal=1;startSize=30;horizontalStack=0;resizeParent=1;resizeParentMax=0;resizeLast=0;collapsible=1;marginBottom=0;whiteSpace=wrap;html=1;" vertex="1" parent="1">
          <mxGeometry x="135" y="550" width="140" height="150" as="geometry" />
        </mxCell>
        <mxCell id="wJvns1OEq2L9lGym005K-21" value="Model definition" style="text;strokeColor=none;fillColor=none;align=left;verticalAlign=middle;spacingLeft=4;spacingRight=4;overflow=hidden;points=[[0,0.5],[1,0.5]];portConstraint=eastwest;rotatable=0;whiteSpace=wrap;html=1;" vertex="1" parent="wJvns1OEq2L9lGym005K-20">
          <mxGeometry y="30" width="140" height="30" as="geometry" />
        </mxCell>
        <mxCell id="wJvns1OEq2L9lGym005K-22" value="Data source" style="text;strokeColor=none;fillColor=none;align=left;verticalAlign=middle;spacingLeft=4;spacingRight=4;overflow=hidden;points=[[0,0.5],[1,0.5]];portConstraint=eastwest;rotatable=0;whiteSpace=wrap;html=1;" vertex="1" parent="wJvns1OEq2L9lGym005K-20">
          <mxGeometry y="60" width="140" height="30" as="geometry" />
        </mxCell>
        <mxCell id="wJvns1OEq2L9lGym005K-23" value="Pipeline definitions" style="text;strokeColor=none;fillColor=none;align=left;verticalAlign=middle;spacingLeft=4;spacingRight=4;overflow=hidden;points=[[0,0.5],[1,0.5]];portConstraint=eastwest;rotatable=0;whiteSpace=wrap;html=1;" vertex="1" parent="wJvns1OEq2L9lGym005K-20">
          <mxGeometry y="90" width="140" height="30" as="geometry" />
        </mxCell>
        <mxCell id="wJvns1OEq2L9lGym005K-32" value="Code for steps" style="text;strokeColor=none;fillColor=none;align=left;verticalAlign=middle;spacingLeft=4;spacingRight=4;overflow=hidden;points=[[0,0.5],[1,0.5]];portConstraint=eastwest;rotatable=0;whiteSpace=wrap;html=1;" vertex="1" parent="wJvns1OEq2L9lGym005K-20">
          <mxGeometry y="120" width="140" height="30" as="geometry" />
        </mxCell>
        <mxCell id="wJvns1OEq2L9lGym005K-28" value="" style="endArrow=none;html=1;rounded=0;" edge="1" parent="1" source="wJvns1OEq2L9lGym005K-4" target="wJvns1OEq2L9lGym005K-20">
          <mxGeometry width="50" height="50" relative="1" as="geometry">
            <mxPoint x="30" y="630" as="sourcePoint" />
            <mxPoint x="80" y="580" as="targetPoint" />
          </mxGeometry>
        </mxCell>
        <mxCell id="wJvns1OEq2L9lGym005K-30" value="" style="shape=step;perimeter=stepPerimeter;whiteSpace=wrap;html=1;fixedSize=1;rotation=90;" vertex="1" parent="1">
          <mxGeometry x="-209" y="279" width="120" height="44" as="geometry" />
        </mxCell>
        <mxCell id="wJvns1OEq2L9lGym005K-33" value="ML PROJECT REPO (Forked from config repo)" style="rounded=0;whiteSpace=wrap;html=1;" vertex="1" parent="1">
          <mxGeometry x="-6" y="395" width="120" height="60" as="geometry" />
        </mxCell>
        <mxCell id="wJvns1OEq2L9lGym005K-35" value="2." style="shape=step;perimeter=stepPerimeter;whiteSpace=wrap;html=1;fixedSize=1;size=20.733317057291664;" vertex="1" parent="1">
          <mxGeometry x="-81" y="412" width="66" height="26" as="geometry" />
        </mxCell>
        <mxCell id="wJvns1OEq2L9lGym005K-36" value="ML DEV" style="shape=umlActor;verticalLabelPosition=bottom;verticalAlign=top;html=1;outlineConnect=0;" vertex="1" parent="1">
          <mxGeometry x="36.5" y="127" width="35.5" height="70" as="geometry" />
        </mxCell>
        <mxCell id="wJvns1OEq2L9lGym005K-37" value="" style="shape=step;perimeter=stepPerimeter;whiteSpace=wrap;html=1;fixedSize=1;rotation=90;" vertex="1" parent="1">
          <mxGeometry x="-6" y="279" width="120" height="44" as="geometry" />
        </mxCell>
        <mxCell id="wJvns1OEq2L9lGym005K-39" value="Dev input" style="swimlane;fontStyle=0;childLayout=stackLayout;horizontal=1;startSize=30;horizontalStack=0;resizeParent=1;resizeParentMax=0;resizeLast=0;collapsible=1;marginBottom=0;whiteSpace=wrap;html=1;" vertex="1" parent="1">
          <mxGeometry x="184" y="132" width="140" height="150" as="geometry" />
        </mxCell>
        <mxCell id="wJvns1OEq2L9lGym005K-40" value="Data source config" style="text;strokeColor=none;fillColor=none;align=left;verticalAlign=middle;spacingLeft=4;spacingRight=4;overflow=hidden;points=[[0,0.5],[1,0.5]];portConstraint=eastwest;rotatable=0;whiteSpace=wrap;html=1;" vertex="1" parent="wJvns1OEq2L9lGym005K-39">
          <mxGeometry y="30" width="140" height="30" as="geometry" />
        </mxCell>
        <mxCell id="wJvns1OEq2L9lGym005K-41" value="Model definition" style="text;strokeColor=none;fillColor=none;align=left;verticalAlign=middle;spacingLeft=4;spacingRight=4;overflow=hidden;points=[[0,0.5],[1,0.5]];portConstraint=eastwest;rotatable=0;whiteSpace=wrap;html=1;" vertex="1" parent="wJvns1OEq2L9lGym005K-39">
          <mxGeometry y="60" width="140" height="30" as="geometry" />
        </mxCell>
        <mxCell id="wJvns1OEq2L9lGym005K-42" value="Pipeline definition" style="text;strokeColor=none;fillColor=none;align=left;verticalAlign=middle;spacingLeft=4;spacingRight=4;overflow=hidden;points=[[0,0.5],[1,0.5]];portConstraint=eastwest;rotatable=0;whiteSpace=wrap;html=1;" vertex="1" parent="wJvns1OEq2L9lGym005K-39">
          <mxGeometry y="90" width="140" height="30" as="geometry" />
        </mxCell>
        <mxCell id="wJvns1OEq2L9lGym005K-45" value="Code for steps" style="text;strokeColor=none;fillColor=none;align=left;verticalAlign=middle;spacingLeft=4;spacingRight=4;overflow=hidden;points=[[0,0.5],[1,0.5]];portConstraint=eastwest;rotatable=0;whiteSpace=wrap;html=1;" vertex="1" parent="wJvns1OEq2L9lGym005K-39">
          <mxGeometry y="120" width="140" height="30" as="geometry" />
        </mxCell>
        <mxCell id="wJvns1OEq2L9lGym005K-43" value="" style="endArrow=none;html=1;rounded=0;" edge="1" parent="1" source="wJvns1OEq2L9lGym005K-37" target="wJvns1OEq2L9lGym005K-39">
          <mxGeometry width="50" height="50" relative="1" as="geometry">
            <mxPoint x="134" y="329" as="sourcePoint" />
            <mxPoint x="184" y="279" as="targetPoint" />
          </mxGeometry>
        </mxCell>
        <mxCell id="wJvns1OEq2L9lGym005K-46" value="&amp;nbsp;SEPARATE UPSTREAM CONFIG REPO" style="rounded=0;whiteSpace=wrap;html=1;" vertex="1" parent="1">
          <mxGeometry x="-209" y="550" width="120" height="60" as="geometry" />
        </mxCell>
        <mxCell id="wJvns1OEq2L9lGym005K-48" value="" style="endArrow=classic;html=1;rounded=0;edgeStyle=orthogonalEdgeStyle;" edge="1" parent="1" source="wJvns1OEq2L9lGym005K-46" target="wJvns1OEq2L9lGym005K-33">
          <mxGeometry width="50" height="50" relative="1" as="geometry">
            <mxPoint x="-101" y="548" as="sourcePoint" />
            <mxPoint x="-51" y="498" as="targetPoint" />
          </mxGeometry>
        </mxCell>
        <mxCell id="wJvns1OEq2L9lGym005K-51" value="1." style="shape=step;perimeter=stepPerimeter;whiteSpace=wrap;html=1;fixedSize=1;rotation=90;" vertex="1" parent="1">
          <mxGeometry x="-182" y="489" width="66" height="26" as="geometry" />
        </mxCell>
        <mxCell id="wJvns1OEq2L9lGym005K-52" value="Config defaults" style="swimlane;fontStyle=0;childLayout=stackLayout;horizontal=1;startSize=30;horizontalStack=0;resizeParent=1;resizeParentMax=0;resizeLast=0;collapsible=1;marginBottom=0;whiteSpace=wrap;html=1;" vertex="1" parent="1">
          <mxGeometry x="-409" y="537" width="140" height="150" as="geometry" />
        </mxCell>
        <mxCell id="wJvns1OEq2L9lGym005K-53" value="Default platform service end points" style="text;strokeColor=none;fillColor=none;align=left;verticalAlign=middle;spacingLeft=4;spacingRight=4;overflow=hidden;points=[[0,0.5],[1,0.5]];portConstraint=eastwest;rotatable=0;whiteSpace=wrap;html=1;" vertex="1" parent="wJvns1OEq2L9lGym005K-52">
          <mxGeometry y="30" width="140" height="30" as="geometry" />
        </mxCell>
        <mxCell id="wJvns1OEq2L9lGym005K-54" value="Default branches" style="text;strokeColor=none;fillColor=none;align=left;verticalAlign=middle;spacingLeft=4;spacingRight=4;overflow=hidden;points=[[0,0.5],[1,0.5]];portConstraint=eastwest;rotatable=0;whiteSpace=wrap;html=1;" vertex="1" parent="wJvns1OEq2L9lGym005K-52">
          <mxGeometry y="60" width="140" height="30" as="geometry" />
        </mxCell>
        <mxCell id="wJvns1OEq2L9lGym005K-55" value="Default CI/CD config" style="text;strokeColor=none;fillColor=none;align=left;verticalAlign=middle;spacingLeft=4;spacingRight=4;overflow=hidden;points=[[0,0.5],[1,0.5]];portConstraint=eastwest;rotatable=0;whiteSpace=wrap;html=1;" vertex="1" parent="wJvns1OEq2L9lGym005K-52">
          <mxGeometry y="90" width="140" height="30" as="geometry" />
        </mxCell>
        <mxCell id="wJvns1OEq2L9lGym005K-57" value="Repo structure" style="text;strokeColor=none;fillColor=none;align=left;verticalAlign=middle;spacingLeft=4;spacingRight=4;overflow=hidden;points=[[0,0.5],[1,0.5]];portConstraint=eastwest;rotatable=0;whiteSpace=wrap;html=1;" vertex="1" parent="wJvns1OEq2L9lGym005K-52">
          <mxGeometry y="120" width="140" height="30" as="geometry" />
        </mxCell>
        <mxCell id="wJvns1OEq2L9lGym005K-56" value="" style="endArrow=none;html=1;rounded=0;" edge="1" parent="1" source="wJvns1OEq2L9lGym005K-52" target="wJvns1OEq2L9lGym005K-46">
          <mxGeometry width="50" height="50" relative="1" as="geometry">
            <mxPoint x="-227" y="731" as="sourcePoint" />
            <mxPoint x="-177" y="681" as="targetPoint" />
          </mxGeometry>
        </mxCell>
        <mxCell id="wJvns1OEq2L9lGym005K-60" value="" style="endArrow=none;dashed=1;html=1;dashPattern=1 3;strokeWidth=2;rounded=0;" edge="1" parent="1">
          <mxGeometry width="50" height="50" relative="1" as="geometry">
            <mxPoint x="-82" y="823" as="sourcePoint" />
            <mxPoint x="-87" y="19" as="targetPoint" />
          </mxGeometry>
        </mxCell>
        <mxCell id="wJvns1OEq2L9lGym005K-61" value="&lt;span style=&quot;font-size: 24px;&quot;&gt;SETUP&lt;/span&gt;" style="text;html=1;strokeColor=none;fillColor=none;align=center;verticalAlign=middle;whiteSpace=wrap;rounded=0;" vertex="1" parent="1">
          <mxGeometry x="-345" y="32" width="60" height="30" as="geometry" />
        </mxCell>
        <mxCell id="wJvns1OEq2L9lGym005K-62" value="&lt;span style=&quot;font-size: 24px;&quot;&gt;ML DEVELOPMENT AND AI DEPLOYMENT&lt;br&gt;&lt;/span&gt;" style="text;html=1;strokeColor=none;fillColor=none;align=center;verticalAlign=middle;whiteSpace=wrap;rounded=0;" vertex="1" parent="1">
          <mxGeometry x="58" y="32" width="591" height="30" as="geometry" />
        </mxCell>
        <mxCell id="wJvns1OEq2L9lGym005K-64" value="" style="endArrow=none;dashed=1;html=1;dashPattern=1 3;strokeWidth=2;rounded=0;" edge="1" parent="1">
          <mxGeometry width="50" height="50" relative="1" as="geometry">
            <mxPoint x="777" y="827" as="sourcePoint" />
            <mxPoint x="772" y="23" as="targetPoint" />
          </mxGeometry>
        </mxCell>
        <mxCell id="wJvns1OEq2L9lGym005K-65" value="&lt;span style=&quot;font-size: 24px;&quot;&gt;AI REVIEW AND UTILISATION&lt;/span&gt;" style="text;html=1;strokeColor=none;fillColor=none;align=center;verticalAlign=middle;whiteSpace=wrap;rounded=0;" vertex="1" parent="1">
          <mxGeometry x="891" y="32" width="60" height="30" as="geometry" />
        </mxCell>
        <mxCell id="wJvns1OEq2L9lGym005K-66" value="AI REVIEW" style="rounded=0;whiteSpace=wrap;html=1;" vertex="1" parent="1">
          <mxGeometry x="843" y="304" width="120" height="60" as="geometry" />
        </mxCell>
        <mxCell id="wJvns1OEq2L9lGym005K-67" value="AI UTILISATION:&lt;br&gt;INTEGRATION TO E.G. WEB APPLICATIONS" style="rounded=0;whiteSpace=wrap;html=1;" vertex="1" parent="1">
          <mxGeometry x="843" y="496" width="120" height="60" as="geometry" />
        </mxCell>
        <mxCell id="wJvns1OEq2L9lGym005K-68" value="AI MONITORING" style="rounded=0;whiteSpace=wrap;html=1;" vertex="1" parent="1">
          <mxGeometry x="843" y="395" width="120" height="60" as="geometry" />
        </mxCell>
        <mxCell id="wJvns1OEq2L9lGym005K-70" value="OUTPUT:&lt;br&gt;TRAINED&lt;br&gt;MODEL" style="html=1;shadow=0;dashed=0;align=center;verticalAlign=middle;shape=mxgraph.arrows2.arrow;dy=0;dx=30;notch=30;rotation=0;" vertex="1" parent="1">
          <mxGeometry x="570" y="304" width="176" height="60" as="geometry" />
        </mxCell>
        <mxCell id="wJvns1OEq2L9lGym005K-69" value="OUTPUT:&lt;br&gt;DEPLOYED&lt;br&gt;MODEL&lt;br&gt;ENDPOINT" style="html=1;shadow=0;dashed=0;align=center;verticalAlign=middle;shape=mxgraph.arrows2.arrow;dy=0;dx=30;notch=30;rotation=0;" vertex="1" parent="1">
          <mxGeometry x="570" y="496" width="181" height="60" as="geometry" />
        </mxCell>
        <mxCell id="wJvns1OEq2L9lGym005K-73" value="" style="endArrow=async;html=1;rounded=0;endFill=0;" edge="1" parent="1" source="wJvns1OEq2L9lGym005K-70" target="wJvns1OEq2L9lGym005K-66">
          <mxGeometry width="50" height="50" relative="1" as="geometry">
            <mxPoint x="813" y="342" as="sourcePoint" />
            <mxPoint x="863" y="292" as="targetPoint" />
          </mxGeometry>
        </mxCell>
        <mxCell id="wJvns1OEq2L9lGym005K-74" value="" style="endArrow=async;html=1;rounded=0;exitX=1;exitY=0.5;exitDx=0;exitDy=0;exitPerimeter=0;entryX=0;entryY=0.5;entryDx=0;entryDy=0;endFill=0;" edge="1" parent="1" source="wJvns1OEq2L9lGym005K-5" target="wJvns1OEq2L9lGym005K-66">
          <mxGeometry width="50" height="50" relative="1" as="geometry">
            <mxPoint x="828" y="444" as="sourcePoint" />
            <mxPoint x="878" y="394" as="targetPoint" />
          </mxGeometry>
        </mxCell>
        <mxCell id="wJvns1OEq2L9lGym005K-75" value="" style="endArrow=async;html=1;rounded=0;exitX=1;exitY=0.5;exitDx=0;exitDy=0;exitPerimeter=0;endFill=0;" edge="1" parent="1" source="wJvns1OEq2L9lGym005K-69" target="wJvns1OEq2L9lGym005K-67">
          <mxGeometry width="50" height="50" relative="1" as="geometry">
            <mxPoint x="808" y="592" as="sourcePoint" />
            <mxPoint x="858" y="542" as="targetPoint" />
          </mxGeometry>
        </mxCell>
        <mxCell id="wJvns1OEq2L9lGym005K-76" value="" style="endArrow=async;html=1;rounded=0;exitX=1;exitY=0.5;exitDx=0;exitDy=0;exitPerimeter=0;endFill=0;" edge="1" parent="1" source="wJvns1OEq2L9lGym005K-5" target="wJvns1OEq2L9lGym005K-68">
          <mxGeometry width="50" height="50" relative="1" as="geometry">
            <mxPoint x="915" y="716" as="sourcePoint" />
            <mxPoint x="965" y="666" as="targetPoint" />
          </mxGeometry>
        </mxCell>
        <mxCell id="wJvns1OEq2L9lGym005K-77" value="" style="endArrow=async;html=1;rounded=0;exitX=1;exitY=0.5;exitDx=0;exitDy=0;exitPerimeter=0;entryX=0;entryY=0.5;entryDx=0;entryDy=0;endFill=0;" edge="1" parent="1" source="wJvns1OEq2L9lGym005K-69" target="wJvns1OEq2L9lGym005K-68">
          <mxGeometry width="50" height="50" relative="1" as="geometry">
            <mxPoint x="822" y="516" as="sourcePoint" />
            <mxPoint x="872" y="466" as="targetPoint" />
          </mxGeometry>
        </mxCell>
        <mxCell id="wJvns1OEq2L9lGym005K-78" value="Tooling Roadmap" style="swimlane;fontStyle=0;childLayout=stackLayout;horizontal=1;startSize=30;horizontalStack=0;resizeParent=1;resizeParentMax=0;resizeLast=0;collapsible=1;marginBottom=0;whiteSpace=wrap;html=1;dashed=1;" vertex="1" parent="1">
          <mxGeometry x="-409" y="708" width="301" height="120" as="geometry" />
        </mxCell>
        <mxCell id="wJvns1OEq2L9lGym005K-79" value="1. CLI" style="text;strokeColor=none;fillColor=none;align=left;verticalAlign=middle;spacingLeft=4;spacingRight=4;overflow=hidden;points=[[0,0.5],[1,0.5]];portConstraint=eastwest;rotatable=0;whiteSpace=wrap;html=1;" vertex="1" parent="wJvns1OEq2L9lGym005K-78">
          <mxGeometry y="30" width="301" height="30" as="geometry" />
        </mxCell>
        <mxCell id="wJvns1OEq2L9lGym005K-80" value="2. WEB GUI" style="text;strokeColor=none;fillColor=none;align=left;verticalAlign=middle;spacingLeft=4;spacingRight=4;overflow=hidden;points=[[0,0.5],[1,0.5]];portConstraint=eastwest;rotatable=0;whiteSpace=wrap;html=1;" vertex="1" parent="wJvns1OEq2L9lGym005K-78">
          <mxGeometry y="60" width="301" height="30" as="geometry" />
        </mxCell>
        <mxCell id="wJvns1OEq2L9lGym005K-81" value="3. VSCODE EXTENSION" style="text;strokeColor=none;fillColor=none;align=left;verticalAlign=middle;spacingLeft=4;spacingRight=4;overflow=hidden;points=[[0,0.5],[1,0.5]];portConstraint=eastwest;rotatable=0;whiteSpace=wrap;html=1;" vertex="1" parent="wJvns1OEq2L9lGym005K-78">
          <mxGeometry y="90" width="301" height="30" as="geometry" />
        </mxCell>
      </root>
    </mxGraphModel>
  </diagram>
</mxfile>
